<?xml version="1.0" standalone="no"?>
<!DOCTYPE svg PUBLIC "-//W3C//DTD SVG 20010904//EN"
 "http://www.w3.org/TR/2001/REC-SVG-20010904/DTD/svg10.dtd">
<svg version="1.0" xmlns="http://www.w3.org/2000/svg"
 width="445.000000pt" height="445.000000pt" viewBox="0 0 445.000000 445.000000"
 preserveAspectRatio="xMidYMid meet">
<metadata>
Created by potrace 1.11, written by Peter Selinger 2001-2013
</metadata>
<g transform="translate(0.000000,445.000000) scale(0.100000,-0.100000)" stroke="none">
<path d="M1955 4295 c-567 -81 -1053 -341 -1410 -757 -271 -315 -443 -678
-515 -1088 -28 -157 -38 -450 -21 -601 59 -518 273 -974 627 -1336 79 -81 104
-102 100 -83 -17 82 -28 258 -22 349 17 256 91 495 212 683 84 131 254 284
496 446 42 28 79 55 81 59 3 5 -46 328 -109 718 -62 391 -114 716 -114 723 0
9 76 12 345 12 190 0 345 -4 345 -8 0 -17 181 -1196 184 -1200 2 -1 66 15 142
37 374 108 735 159 1247 177 l197 7 0 -405 0 -406 -217 -6 c-500 -15 -766 -41
-1051 -102 -296 -63 -493 -140 -680 -265 -205 -136 -292 -289 -292 -513 0
-188 67 -311 228 -417 193 -127 407 -165 982 -175 252 -4 390 -2 511 8 l166
14 79 54 c177 120 375 302 497 456 303 385 469 838 484 1325 14 437 -88 841
-306 1207 -341 575 -893 956 -1556 1073 -157 28 -483 35 -630 14z"/>
</g>
</svg>
