<?xml version="1.0" encoding="UTF-8" standalone="no"?>
<svg width="75px" height="30px" viewBox="0 0 75 30" version="1.1" xmlns="http://www.w3.org/2000/svg" xmlns:xlink="http://www.w3.org/1999/xlink">
    <title>trkw</title>
    <g id="trkw" stroke="none" stroke-width="1" fill="none" fill-rule="evenodd">
        <g id="trkw" fill="#000000">
            <path d="M20.54,13.44 C18.54,13.44 16.8133333,13.5033333 15.36,13.63 C13.9235055,13.7560983 12.5011705,14.0104452 11.11,14.39 C9.83701553,14.7148343 8.63851668,15.2818295 7.58,16.06 C6.64479624,16.7173621 6.08580883,17.7868914 6.08,18.93 C6.02737203,19.8967155 6.43533048,20.8313112 7.18,21.45 C7.93325254,22.0139312 8.81142308,22.3878398 9.74,22.54 C10.8097206,22.7269585 11.8940893,22.8173226 12.98,22.81 C14.2256992,22.8794575 15.4743008,22.8794575 16.72,22.81 C17.86,22.7366667 19.1366667,22.6233333 20.55,22.47 L20.55,27.6 C18.065705,27.8102564 15.5701066,27.8536871 13.08,27.73 C11.1291799,27.6610026 9.19140705,27.3827411 7.3,26.9 C5.55374433,26.4580864 3.96248732,25.5448433 2.7,24.26 C1.43333333,22.9733333 0.866666667,21.1 1,18.64 C1.08586757,17.4553046 1.38748761,16.2962703 1.89,15.22 C2.33511056,14.3100615 2.97733026,13.5107029 3.77,12.88 C4.53007087,12.2789312 5.3211585,11.7181602 6.14,11.2 L4.66,1.89 L9.14,1.89 L10.33,9.66 C11.9246556,9.13404297 13.565197,8.75906209 15.23,8.54 C16.9927077,8.33507483 18.7654396,8.22824353 20.54,8.22 L20.54,13.45 L20.54,13.44 Z"></path>
            <path d="M26,1.76 L30.83,1.76 C30.83,1.76 30.83,2.07 30.73,2.63 C30.63,3.19 30.59,3.9 30.49,4.78 C30.39,5.66 30.3,6.59 30.22,7.57 C30.8331295,6.20620926 31.6715159,4.95539084 32.7,3.87 C33.5666093,2.96484653 34.7482097,2.42775545 36,2.37 C38.3717376,2.16552605 40.6249149,3.44113435 41.67,5.58 C42.83,7.78 43.41,10.9033333 43.41,14.95 C43.41,18.9966667 42.1733333,22.1833333 39.7,24.51 C37.2333333,26.7766667 33.6366667,27.9 28.91,27.88 L28.91,23 C31.0023547,23.0389567 33.0788287,22.6297992 35,21.8 C36.2421362,21.1915651 37.2300281,20.1647241 37.79,18.9 C38.307978,17.6661461 38.5633975,16.3379646 38.54,15 C38.6406248,13.1663889 38.4584935,11.3282122 38,9.55 C37.58,8.17 36.9133333,7.46 36,7.42 C35.2881505,7.46206169 34.614561,7.75631394 34.1,8.25 C33.4794125,8.81237183 32.9763948,9.49212558 32.62,10.25 C32.2333333,11.0433333 31.9,11.83 31.62,12.61 C31.3587727,13.2418997 31.1383206,13.889895 30.96,14.55 C30.8533333,14.91 30.7366667,15.4166667 30.61,16.07 C30.4701471,16.8688263 30.4065277,17.6791358 30.42,18.49 C30.42,18.85 30.49,19.16 30.5,19.42 C30.51,19.68 30.5,19.82 30.5,19.84 L25.5,19.84 C25.5,19.84 25.5,19.4 25.4,18.59 C25.3,17.78 25.29,16.74 25.26,15.46 C25.23,14.18 25.26,12.84 25.26,11.46 C25.26,10.08 25.42,8.73 25.55,7.26 C25.68,5.79 25.81,4.52 25.94,3.47 C26.07,2.42 26,1.83 26,1.76 L26,1.76 Z"></path>
            <path d="M50.56,0 L55.49,0 L55.49,11.52 C55.49,13.4266667 55.4433333,15.0933333 55.35,16.52 C55.2339415,18.0901387 55.0302911,19.6525711 54.74,21.2 C54.4433791,22.8603399 53.9289377,24.4742736 53.21,26 C52.5145756,27.4510646 51.6191991,28.7974956 50.55,30 C49.9543322,29.3254289 49.3019448,28.7031517 48.6,28.14 C47.8958405,27.5375246 47.147029,26.9892877 46.36,26.5 C47.5702155,25.1490347 48.5014016,23.5721357 49.1,21.86 C49.7028258,20.2480229 50.1090911,18.569241 50.31,16.86 C50.4835906,15.0586934 50.5636981,13.2495998 50.55,11.44 L50.55,0 L50.56,0 Z M60.45,1.44 L65.35,1.44 L65.35,26.31 L60.45,26.31 L60.45,1.48 L60.45,1.44 Z M69.94,0 L75,0 L75,29.55 L69.94,29.55 L69.94,0 L69.94,0 Z"></path>
        </g>
    </g>
</svg>