<svg xmlns="http://www.w3.org/2000/svg" viewBox="0 0 64 16"><defs></defs><title>trkw</title><path d="M1.85,0.62L13.63,0.5,11.74,3.93l-3,0,0.07,7.29a1.1,1.1,0,0,1-.24.15l-0.69.38L7,12.28l-1,.5c-0.3.16-.56,0.29-0.78,0.38a2.06,2.06,0,0,1-.37.15H4.69L4.6,4,0,4.05Z"/><path d="M30.85,16h-0.2l-11-7.8,4.09-4A0.82,0.82,0,0,0,23.54,4a0.3,0.3,0,0,0-.18-0.12l-4.64,0,0.07,7.23-0.25.15-0.7.38-0.93.5-1,.5-0.77.38a1.9,1.9,0,0,1-.36.15h-0.2L14.49,0.5l12.58-.13a1.08,1.08,0,0,1,.67.41,9.68,9.68,0,0,1,.81,1q0.4,0.55.74,1.09T29.73,3.6L25,8.81Z"/><path d="M34.78,0.29l0.05,5.45,0.35,0.08,5.07-5.59,5.35-.05-5.7,6.7,2,2.56,1.86,2.29,1.72,2.1q0.83,1,1.61,2H46.92L34.85,7.27l0,3.72-0.25.15-0.7.38L33,12l-1,.5c-0.3.16-.56,0.29-0.78,0.38a2.06,2.06,0,0,1-.37.15H30.71L30.58,0.33Z"/><path d="M47.17,12.19a5,5,0,0,1-.54-1.14L46.52,0.17l4.22,0,0.09,9.31,2.37,0L53.11,0.11l4.18,0,0.09,9.31,2.39,0L59.67,0l4.22,0L64,10.88A4.23,4.23,0,0,1,63.49,12a6.73,6.73,0,0,1-.53.7l-5.55.06V11.5a2.44,2.44,0,0,1-.36.16l-0.73.26-0.9.31-0.89.3-0.72.22-0.36.08-5.73.06A5.73,5.73,0,0,1,47.17,12.19Z"/></svg>